<?xml version="1.0" standalone="no"?><!DOCTYPE svg PUBLIC "-//W3C//DTD SVG 1.1//EN" "http://www.w3.org/Graphics/SVG/1.1/DTD/svg11.dtd"><svg t="1684032865319" class="icon" viewBox="0 0 1024 1024" version="1.1" xmlns="http://www.w3.org/2000/svg" p-id="3951" xmlns:xlink="http://www.w3.org/1999/xlink" width="200" height="200"><path d="M512 8.827586C234.107586 8.827586 8.827586 234.107586 8.827586 512S234.107586 1015.172414 512 1015.172414s503.172414-225.28 503.172414-503.172414S789.892414 8.827586 512 8.827586z m0 52.965517c248.620138 0 450.206897 201.586759 450.206897 450.206897S760.620138 962.206897 512 962.206897 61.793103 760.620138 61.793103 512 263.379862 61.793103 512 61.793103z" fill="#ffffff" p-id="3952"></path><path d="M712.915862 375.702069V286.896552c0-15.536552-13.170759-27.471448-27.824552-25.140966l-270.583172 42.902069a23.834483 23.834483 0 0 0-19.561931 23.869793v283.400828a72.598069 72.598069 0 0 0-27.118345-5.225931c-40.606897 0-73.622069 33.368276-73.622069 74.504827 0 41.242483 32.979862 74.610759 73.622069 74.610759 40.606897 0 73.551448-33.332966 73.551448-74.504828 0-1.306483-0.070621-2.612966-0.105931-3.884137h0.105931V418.78069l225.068138-35.734069v181.848276a73.198345 73.198345 0 0 0-27.224276-5.296552 74.081103 74.081103 0 0 0-73.692689 74.540138c0 41.207172 32.979862 74.575448 73.692689 74.575448 40.677517 0 73.69269-33.368276 73.69269-74.575448 0-2.01269-0.105931-4.025379-0.211862-6.07338v-252.327724l0.211862-0.03531z" fill="#ffffff" p-id="3953"></path><path d="M253.563586 109.214897l595.791448 745.436689-41.383724 33.085793L212.179862 142.30069z" fill="#ffffff" p-id="3954"></path></svg>